<svg id="logosandtypes_com" xmlns="http://www.w3.org/2000/svg" viewBox="0 0 150 150"><path d="M0 0h150v150H0V0z" fill="none"/><path d="M85.5 59.8c-6.8-4.2-12.9-9.4-20.6-11.6-5.6-1.6-10.3.9-14.9 3.6-4 2.3-6.7 5.5-6.3 10.5.1 1.6-.7 2.8-2.1 3.7-4.3 2.8-8.9 4.5-13.9 5.6-1 .2-2.1.3-2.8-.7-.9-1.2-.2-2.4.4-3.4 3.3-5.8 7.7-10.7 12.6-15.2 7.4-6.8 15.9-11.5 26.1-12.7 8.7-1.1 17 .9 25.1 4.2 3.1 1.3 6.3 2.5 9.4 3.8 1.3.5 2.4.4 3.6-.4 3.5-2.4 6.9-4.9 11.2-5.7 2.9-.5 5.6.1 8.1 1.6 3.1 1.9 4.1 5.6 2 8.9-4.3 6.6-10 11.7-17.9 13.8-4.2 1.1-8.2 0-12-1.7-.7-.3-1.4-.5-2.2-.9-5.3 4.9-9.9 10.3-14.6 16.1 4.5 0 8.6.5 12.5 1.5 20.7 5.5 37.1 16.7 48.2 35.3 2.2 3.7 4.2 7.6 5.4 11.8.3 1.2.7 2.5-.5 3.4-1.1.8-2.4.5-3.5-.1-6.3-3.5-12.5-7.3-17.6-12.6-1.9-2-2.7-4.2-1.6-7.1 1-2.6.2-4.9-1.9-6.7-3.8-3.4-8.5-5.2-13.3-6.5-11.9-3.3-24.4-4.8-37-4.5-1.6 0-2.8.5-4 1.8-10.3 11.9-22.1 22-36.9 28.1-4.1 1.7-8.2 2.6-12.7 2.5-2.7-.1-3.6-1.1-3.6-3.7 0-2 .6-3.7 1.6-5.4 5.1-8.5 12.4-15 20.6-20.4 10.4-6.9 21.3-12.6 33.4-15.8.6-.2 1.1-.5 1.4-.9 5.3-6.9 11-13.5 17.6-19.3.2-.2.4-.5.7-.9zM54.9 95.3c-10.3 2.4-19.4 5.6-27.6 11.2-3.3 2.2-6 5-7.7 8.7-.6 1.2-1 2.5-.3 3.8 1.6.8 3.2.4 4.8-.2 2.5-.8 4.8-2 7-3.3 8.8-5.3 16.4-12.1 23.8-20.2zm65-47.1c-2.2-1.9-9.8-.5-12.2 2.3 4.8 1.7 10.9.6 12.2-2.3zM90 36.9c-6.8.1-11.2-3-12.3-8.1-.9-4.2 2.2-9.7 6.9-12.4 3.4-1.9 7.2-1.3 10.7 1.8 3.3 3 5.5 6.7 6.6 11 1 3.9-.5 6.1-4.4 6.9-2.6.6-5.4.7-7.5.8z"/></svg>